<svg width="32" height="32" viewBox="0 0 32 32" fill="none" xmlns="http://www.w3.org/2000/svg">
<path d="M2.9594 2.95958C2.60437 3.3146 2.5721 3.87015 2.86257 4.26163L2.9594 4.37379L8.33882 9.75322C5.77617 11.5525 3.86086 14.2399 3.06501 17.4192C2.9309 17.9549 3.2565 18.498 3.79225 18.6322C4.32801 18.7662 4.87104 18.4407 5.00516 17.9048C5.71112 15.0847 7.45466 12.7193 9.77872 11.1927L12.1916 13.6058C11.2482 14.5678 10.6665 15.8857 10.6665 17.3395C10.6665 20.2851 13.0543 22.6728 15.9998 22.6728C17.4537 22.6728 18.7716 22.0911 19.7337 21.1478L27.6261 29.0404C28.0166 29.431 28.6497 29.431 29.0402 29.0404C29.3953 28.6855 29.4276 28.1299 29.137 27.7384L29.0402 27.6263L20.8889 19.474L20.8905 19.472L19.2904 17.8748L15.4638 14.0491L15.4665 14.048L11.6249 10.2104L11.6265 10.208L10.1155 8.70067L4.37361 2.95958C3.98309 2.56906 3.34992 2.56906 2.9594 2.95958ZM13.6053 15.0207L18.3188 19.7342C17.7188 20.3152 16.901 20.6728 15.9998 20.6728C14.1589 20.6728 12.6665 19.1804 12.6665 17.3395C12.6665 16.4383 13.0242 15.6206 13.6053 15.0207ZM15.9998 7.33335C14.6661 7.33335 13.372 7.53078 12.148 7.90002L13.7973 9.54827C14.5117 9.40711 15.2484 9.33335 15.9998 9.33335C21.2306 9.33335 25.7464 12.907 26.996 17.911C27.1298 18.4467 27.6726 18.7726 28.2085 18.6388C28.7444 18.505 29.0702 17.9622 28.9364 17.4263C27.4657 11.537 22.1538 7.33335 15.9998 7.33335ZM16.2594 12.0124L21.3278 17.08C21.1921 14.3375 18.9961 12.1435 16.2594 12.0124Z" fill="black"/>
</svg>
