<svg width="32" height="32" viewBox="0 0 32 32" fill="none" xmlns="http://www.w3.org/2000/svg">
<path d="M15.9999 12.0061C18.9453 12.0061 21.3332 14.394 21.3332 17.3394C21.3332 20.285 18.9453 22.6728 15.9999 22.6728C13.0543 22.6728 10.6665 20.285 10.6665 17.3394C10.6665 14.394 13.0543 12.0061 15.9999 12.0061ZM15.9999 14.0061C14.1589 14.0061 12.6665 15.4985 12.6665 17.3394C12.6665 19.1804 14.1589 20.6728 15.9999 20.6728C17.8408 20.6728 19.3332 19.1804 19.3332 17.3394C19.3332 15.4985 17.8408 14.0061 15.9999 14.0061ZM15.9999 7.33331C22.1512 7.33331 27.4613 11.5333 28.9347 17.4192C29.0688 17.9549 28.7432 18.498 28.2075 18.6321C27.6716 18.7661 27.1287 18.4406 26.9945 17.9048C25.7427 12.9039 21.2283 9.33331 15.9999 9.33331C10.7691 9.33331 6.25329 12.907 5.00364 17.9109C4.86982 18.4466 4.32697 18.7725 3.79114 18.6388C3.25532 18.5049 2.92942 17.9621 3.06324 17.4262C4.53402 11.5369 9.84581 7.33331 15.9999 7.33331Z" fill="black"/>
</svg>
