<svg width="120" height="120" viewBox="0 0 120 120" fill="none" xmlns="http://www.w3.org/2000/svg">
<g filter="url(#filter0_d_319_6619)">
<path d="M15 20V100C15 102.652 16.0536 105.196 17.9289 107.071C19.8043 108.946 22.3478 110 25 110H95C97.6522 110 100.196 108.946 102.071 107.071C103.946 105.196 105 102.652 105 100V49.15C105.001 47.8304 104.741 46.5237 104.235 45.3052C103.728 44.0866 102.986 42.9803 102.05 42.05L72.95 12.95C72.0197 12.0142 70.9134 11.2717 69.6948 10.7654C68.4763 10.2591 67.1696 9.99896 65.85 10H25C22.3478 10 19.8043 11.0536 17.9289 12.9289C16.0536 14.8043 15 17.3478 15 20Z" stroke="#757272" stroke-width="1.5" stroke-linecap="round" stroke-linejoin="round" shape-rendering="crispEdges"/>
</g>
<path d="M103 45H80C77.3478 45 74.8043 43.9464 72.9289 42.0711C71.0536 40.1957 70 37.6522 70 35V12" stroke="#757272" stroke-width="1.5" stroke-linecap="round" stroke-linejoin="round"/>
<path d="M80 65H40" stroke="#757272" stroke-width="1.5" stroke-linecap="round" stroke-linejoin="round"/>
<path d="M50 45H40" stroke="#757272" stroke-width="1.5" stroke-linecap="round" stroke-linejoin="round"/>
<path d="M80 85H40" stroke="#757272" stroke-width="1.5" stroke-linecap="round" stroke-linejoin="round"/>
<defs>
<filter id="filter0_d_319_6619" x="6.25" y="1.25" width="107.5" height="117.5" filterUnits="userSpaceOnUse" color-interpolation-filters="sRGB">
<feFlood flood-opacity="0" result="BackgroundImageFix"/>
<feColorMatrix in="SourceAlpha" type="matrix" values="0 0 0 0 0 0 0 0 0 0 0 0 0 0 0 0 0 0 127 0" result="hardAlpha"/>
<feOffset/>
<feGaussianBlur stdDeviation="4"/>
<feComposite in2="hardAlpha" operator="out"/>
<feColorMatrix type="matrix" values="0 0 0 0 0 0 0 0 0 0 0 0 0 0 0 0 0 0 0.4 0"/>
<feBlend mode="normal" in2="BackgroundImageFix" result="effect1_dropShadow_319_6619"/>
<feBlend mode="normal" in="SourceGraphic" in2="effect1_dropShadow_319_6619" result="shape"/>
</filter>
</defs>
</svg>
