<svg width="20" height="20" viewBox="0 0 20 20" fill="none" xmlns="http://www.w3.org/2000/svg">
<path d="M11.6665 1.66666H3.33317C2.4127 1.66666 1.6665 2.41285 1.6665 3.33332V11.6667C1.6665 12.5871 2.4127 13.3333 3.33317 13.3333H11.6665C12.587 13.3333 13.3332 12.5871 13.3332 11.6667V3.33332C13.3332 2.41285 12.587 1.66666 11.6665 1.66666Z" stroke="#0583D2" stroke-width="1.5" stroke-linecap="round" stroke-linejoin="round"/>
<path d="M16.6665 18.3333H8.33317C7.89114 18.3333 7.46722 18.1577 7.15466 17.8452C6.8421 17.5326 6.6665 17.1087 6.6665 16.6667V13.3333H11.6665C12.1085 13.3333 12.5325 13.1577 12.845 12.8452C13.1576 12.5326 13.3332 12.1087 13.3332 11.6667V6.66666H16.6665C17.1085 6.66666 17.5325 6.84225 17.845 7.15481C18.1576 7.46737 18.3332 7.8913 18.3332 8.33332V16.6667C18.3332 17.1087 18.1576 17.5326 17.845 17.8452C17.5325 18.1577 17.1085 18.3333 16.6665 18.3333Z" stroke="#0583D2" stroke-width="1.5" stroke-linecap="round" stroke-linejoin="round"/>
</svg>
