<svg width="24" height="24" viewBox="0 0 24 24" fill="none" xmlns="http://www.w3.org/2000/svg">
<path d="M2 2.99998H4.23C4.45576 2.99224 4.67749 3.06118 4.85908 3.19555C5.04066 3.32992 5.1714 3.52181 5.23 3.73998L8.1 14.52C8.21293 14.9396 8.45944 15.311 8.80225 15.578C9.14506 15.8451 9.56551 15.9932 10 16H16.53C16.9505 16.0004 17.3605 15.8682 17.7015 15.6222C18.0426 15.3763 18.2975 15.0291 18.43 14.63L20.53 8.31998C20.5801 8.17171 20.5948 8.01375 20.5727 7.85879C20.5507 7.70383 20.4926 7.55622 20.4031 7.42781C20.3136 7.29941 20.1952 7.1938 20.0575 7.11949C19.9197 7.04518 19.7665 7.00425 19.61 6.99998H6.1" stroke="#0583D2" stroke-width="1.5" stroke-linecap="round" stroke-linejoin="round"/>
<path d="M9.98999 20H10.01" stroke="#0583D2" stroke-width="2.5" stroke-linecap="round" stroke-linejoin="round"/>
<path d="M15.99 20H16.01" stroke="#0583D2" stroke-width="2.5" stroke-linecap="round" stroke-linejoin="round"/>
</svg>
