<svg width="30" height="22" viewBox="0 0 30 22" fill="none" xmlns="http://www.w3.org/2000/svg">
<path d="M28.5249 5.57498C28.3086 5.3956 28.0463 5.28057 27.7678 5.243C27.4894 5.20543 27.206 5.24683 26.9499 5.36248L20.6374 8.17498C20.5215 8.22306 20.3923 8.22806 20.273 8.18908C20.1538 8.1501 20.0525 8.06972 19.9874 7.96248L16.3124 1.32498C16.18 1.09381 15.9889 0.90171 15.7584 0.768109C15.528 0.634508 15.2663 0.564148 14.9999 0.564148C14.7335 0.564148 14.4718 0.634508 14.2413 0.768109C14.0109 0.90171 13.8198 1.09381 13.6874 1.32498L10.0124 7.96248C9.9473 8.06972 9.84596 8.1501 9.72673 8.18908C9.6075 8.22806 9.47825 8.22306 9.36239 8.17498L3.03739 5.36248C2.78273 5.24589 2.50033 5.20356 2.22268 5.24037C1.94504 5.27718 1.68342 5.39162 1.46794 5.57054C1.25246 5.74945 1.09186 5.98557 1.00464 6.25172C0.917414 6.51787 0.907102 6.80323 0.974888 7.07498L4.14989 20.6125C4.24884 21.0091 4.50042 21.3505 4.84989 21.5625C5.08092 21.6992 5.34395 21.7725 5.61239 21.775C5.75205 21.7725 5.89077 21.7515 6.02489 21.7125C11.899 20.0959 18.1007 20.0959 23.9749 21.7125C24.1695 21.7686 24.3735 21.7843 24.5744 21.7588C24.7753 21.7332 24.9689 21.6669 25.1432 21.564C25.3176 21.461 25.4691 21.3235 25.5885 21.1598C25.7079 20.9962 25.7925 20.81 25.8374 20.6125L29.0249 7.07498C29.091 6.80324 29.0791 6.51836 28.9907 6.25305C28.9023 5.98773 28.7408 5.75272 28.5249 5.57498ZM28.0499 6.84998L24.8624 20.3875C24.8488 20.4524 24.8217 20.5137 24.783 20.5676C24.7442 20.6214 24.6946 20.6665 24.6374 20.7C24.5778 20.7356 24.5115 20.7585 24.4426 20.7671C24.3738 20.7757 24.3039 20.7699 24.2374 20.75C18.1876 19.0831 11.7997 19.0831 5.74989 20.75C5.61895 20.7844 5.47974 20.7655 5.36264 20.6976C5.24554 20.6297 5.16007 20.5182 5.12489 20.3875L1.94989 6.84998C1.92474 6.7599 1.92675 6.6644 1.95565 6.57545C1.98456 6.4865 2.03909 6.40807 2.11239 6.34998C2.20335 6.27256 2.31799 6.22846 2.43739 6.22498C2.50648 6.22973 2.57419 6.24666 2.63739 6.27498L8.96239 9.08748C9.30629 9.2404 9.69511 9.25844 10.0517 9.13803C10.4083 9.01763 10.7066 8.76757 10.8874 8.43748L14.5624 1.81248C14.6081 1.73748 14.6724 1.6755 14.749 1.6325C14.8256 1.5895 14.912 1.56691 14.9999 1.56691C15.0877 1.56691 15.1741 1.5895 15.2507 1.6325C15.3274 1.6755 15.3916 1.73748 15.4374 1.81248L19.1124 8.43748C19.2932 8.76757 19.5915 9.01763 19.9481 9.13803C20.3047 9.25844 20.6935 9.2404 21.0374 9.08748L27.3624 6.27498C27.4481 6.23699 27.5428 6.22388 27.6357 6.23714C27.7285 6.25041 27.8157 6.28951 27.8874 6.34998C27.9607 6.40807 28.0152 6.4865 28.0441 6.57545C28.073 6.6644 28.075 6.7599 28.0499 6.84998ZM19.4999 16.2625C19.4874 16.3862 19.4293 16.5009 19.3369 16.5841C19.2444 16.6673 19.1243 16.7131 18.9999 16.7125H18.9499C16.3237 16.4375 13.676 16.4375 11.0499 16.7125C10.9178 16.7231 10.7868 16.6822 10.6842 16.5983C10.5817 16.5144 10.5156 16.394 10.4999 16.2625C10.493 16.1968 10.4992 16.1303 10.5181 16.067C10.537 16.0037 10.5683 15.9448 10.6102 15.8936C10.652 15.8425 10.7036 15.8001 10.7619 15.769C10.8202 15.738 10.8841 15.7187 10.9499 15.7125C13.6422 15.4249 16.3575 15.4249 19.0499 15.7125C19.1157 15.7187 19.1796 15.738 19.2379 15.769C19.2962 15.8001 19.3478 15.8425 19.3896 15.8936C19.4314 15.9448 19.4627 16.0037 19.4817 16.067C19.5006 16.1303 19.5068 16.1968 19.4999 16.2625Z" fill="#0583D2"/>
</svg>
