<svg width="16" height="16" viewBox="0 0 16 16" fill="none" xmlns="http://www.w3.org/2000/svg">
<path d="M14.9375 8.00036C14.9378 9.37267 14.5311 10.7142 13.7688 11.8554C13.0065 12.9965 11.9229 13.8859 10.6551 14.4111C9.38725 14.9363 7.99213 15.0737 6.64621 14.8059C5.30028 14.5381 4.06401 13.8771 3.09378 12.9066C2.4476 12.2638 1.93535 11.4991 1.58668 10.657C1.23802 9.81479 1.05986 8.91184 1.06253 8.00036H1.99753C1.99753 11.31 4.69034 14.0029 8.00003 14.0029C11.3097 14.0029 14.0025 11.31 14.0025 8.00036C14.0025 4.69067 11.3097 1.99786 8.00003 1.99786C7.18427 1.99784 6.37709 2.16435 5.62793 2.48719C4.87876 2.81002 4.20339 3.28239 3.64315 3.87536H5.46878V4.81036H2.18753V1.53161H3.12284V3.07223C4.09548 2.10929 5.3313 1.45567 6.67468 1.19368C8.01805 0.931686 9.40891 1.07304 10.6721 1.59995C11.9353 2.12685 13.0144 3.01574 13.7734 4.15467C14.5324 5.29361 14.9375 6.63167 14.9375 8.00036ZM7.81253 4.34411V8.75036H11.6563V7.81286H8.75003V4.34411H7.81253Z" fill="black" fill-opacity="0.5"/>
</svg>
