<svg width="21" height="18" viewBox="0 0 21 18" fill="none" xmlns="http://www.w3.org/2000/svg">
<path d="M1.65381 4.0692V6.20103V15.6185L2.54212 16.6846H19.1556L20.2217 15.9739V8.86651L19.6886 3.53584H15.6908L14.447 1.18164H9.29412H7.38401L6.7177 2.02537L6.18464 3.53584H5.47391H3.60822L1.65381 4.0692Z" fill="white"/>
<path d="M18.9783 2.8125H15.7908L15.0314 0.684375C14.9789 0.538753 14.8828 0.412879 14.7561 0.323947C14.6294 0.235016 14.4784 0.187363 14.3236 0.1875H7.13296C6.81655 0.1875 6.53296 0.386719 6.42749 0.684375L5.66577 2.8125H2.47827C1.44233 2.8125 0.603271 3.65156 0.603271 4.6875V15.375C0.603271 16.4109 1.44233 17.25 2.47827 17.25H18.9783C20.0142 17.25 20.8533 16.4109 20.8533 15.375V4.6875C20.8533 3.65156 20.0142 2.8125 18.9783 2.8125ZM19.1658 15.375C19.1658 15.4781 19.0814 15.5625 18.9783 15.5625H2.47827C2.37515 15.5625 2.29077 15.4781 2.29077 15.375V4.6875C2.29077 4.58438 2.37515 4.5 2.47827 4.5H6.85405L7.25483 3.37969L7.79155 1.875H13.6626L14.1994 3.37969L14.6001 4.5H18.9783C19.0814 4.5 19.1658 4.58438 19.1658 4.6875V15.375ZM10.7283 6C8.6564 6 6.97827 7.67812 6.97827 9.75C6.97827 11.8219 8.6564 13.5 10.7283 13.5C12.8001 13.5 14.4783 11.8219 14.4783 9.75C14.4783 7.67812 12.8001 6 10.7283 6ZM10.7283 12C9.48608 12 8.47827 10.9922 8.47827 9.75C8.47827 8.50781 9.48608 7.5 10.7283 7.5C11.9705 7.5 12.9783 8.50781 12.9783 9.75C12.9783 10.9922 11.9705 12 10.7283 12Z" fill="#757272"/>
</svg>
