<svg width="20" height="16" viewBox="0 0 20 16" fill="none" xmlns="http://www.w3.org/2000/svg">
<path d="M10 15.9497C9.75281 15.9503 9.50793 15.902 9.27946 15.8076C9.05099 15.7132 8.84344 15.5746 8.66876 15.3997L2.23126 8.96217C1.72272 8.4481 1.32156 7.83798 1.05116 7.16734C0.780759 6.4967 0.646517 5.77895 0.656256 5.05592C0.661156 4.39332 0.79673 3.7382 1.05521 3.12807C1.3137 2.51795 1.69001 1.96482 2.1626 1.50036C2.63519 1.0359 3.19476 0.669236 3.80928 0.421375C4.42379 0.173514 5.08117 0.0493247 5.74376 0.0559196C6.4182 0.049126 7.08714 0.177842 7.71091 0.434434C8.33468 0.691026 8.90056 1.07027 9.37501 1.54967L10 2.17467L10.5125 1.66217C11.3974 0.753775 12.5816 0.196865 13.8457 0.0945911C15.1097 -0.00768285 16.368 0.351609 17.3875 1.10592C17.9678 1.55283 18.4463 2.11824 18.791 2.76452C19.1357 3.4108 19.3388 4.1231 19.3867 4.85399C19.4346 5.58489 19.3262 6.3176 19.0688 7.00334C18.8114 7.68908 18.4108 8.3121 17.8938 8.83092L11.3313 15.3997C11.1566 15.5746 10.949 15.7132 10.7206 15.8076C10.4921 15.902 10.2472 15.9503 10 15.9497ZM5.71876 1.29967C4.72533 1.29866 3.77048 1.68418 3.05626 2.37467C2.69213 2.72501 2.40256 3.14533 2.20494 3.61038C2.00732 4.07543 1.90573 4.57562 1.90626 5.08092C1.90078 5.63674 2.00568 6.18812 2.21489 6.70309C2.4241 7.21807 2.73345 7.68639 3.12501 8.08092L9.56251 14.5184C9.62061 14.577 9.68973 14.6235 9.76589 14.6552C9.84206 14.687 9.92375 14.7033 10.0063 14.7033C10.0888 14.7033 10.1705 14.687 10.2466 14.6552C10.3228 14.6235 10.3919 14.577 10.45 14.5184L17.0188 7.94342C17.4043 7.54969 17.7022 7.07884 17.8929 6.56179C18.0836 6.04475 18.1627 5.49321 18.125 4.94342C18.0916 4.38799 17.9386 3.84633 17.6765 3.35551C17.4144 2.8647 17.0493 2.43631 16.6063 2.09967C15.8288 1.52648 14.8695 1.25545 13.9071 1.33709C12.9447 1.41873 12.0448 1.84747 11.375 2.54342L10.4438 3.49967C10.3857 3.55825 10.3165 3.60475 10.2404 3.63648C10.1642 3.66821 10.0825 3.68454 10 3.68454C9.9175 3.68454 9.83581 3.66821 9.75964 3.63648C9.68348 3.60475 9.61436 3.55825 9.55626 3.49967L8.49376 2.43717C7.76195 1.71172 6.7742 1.30315 5.74376 1.29967H5.71876Z" fill="#0583D2"/>
</svg>
