<svg width="25" height="24" viewBox="0 0 25 24" fill="none" xmlns="http://www.w3.org/2000/svg">
<path d="M1.99992 21.75C1.92279 21.7608 1.84455 21.7608 1.76742 21.75C1.61078 21.6991 1.47524 21.5981 1.38171 21.4626C1.28819 21.3271 1.24187 21.1645 1.24992 21V20.25C1.25022 16.8609 2.45843 13.5828 4.6577 11.0042C6.85697 8.42551 9.9033 6.71513 13.2499 6.18V3C13.2499 2.86072 13.2887 2.72418 13.3619 2.6057C13.4352 2.48722 13.5399 2.39147 13.6645 2.32918C13.7891 2.26689 13.9286 2.24052 14.0673 2.25303C14.206 2.26554 14.3385 2.31643 14.4499 2.4L23.4499 9.15C23.5431 9.21986 23.6187 9.31045 23.6707 9.41459C23.7228 9.51873 23.7499 9.63357 23.7499 9.75C23.7499 9.86643 23.7228 9.98127 23.6707 10.0854C23.6187 10.1896 23.5431 10.2801 23.4499 10.35L14.4499 17.1C14.3385 17.1836 14.206 17.2345 14.0673 17.247C13.9286 17.2595 13.7891 17.2331 13.6645 17.1708C13.5399 17.1085 13.4352 17.0128 13.3619 16.8943C13.2887 16.7758 13.2499 16.6393 13.2499 16.5V13.6875C9.61814 14.2802 6.36594 16.2795 4.19742 19.2525L2.60742 21.4425C2.5376 21.538 2.44616 21.6157 2.34058 21.6692C2.23499 21.7226 2.11826 21.7503 1.99992 21.75ZM14.7499 4.5V6.84C14.751 7.02541 14.6834 7.20467 14.5602 7.34317C14.4369 7.48167 14.2667 7.56961 14.0824 7.59C11.2544 7.89853 8.61082 9.14398 6.57225 11.1282C4.53368 13.1124 3.21726 15.7214 2.83242 18.54L2.95242 18.3825C4.23587 16.6202 5.87642 15.1483 7.76705 14.0628C9.65769 12.9772 11.7559 12.3025 13.9249 12.0825C14.0295 12.0728 14.1349 12.0851 14.2344 12.1187C14.3339 12.1523 14.4252 12.2064 14.5024 12.2775C14.5801 12.3476 14.6423 12.4332 14.6849 12.5288C14.7275 12.6244 14.7497 12.7278 14.7499 12.8325V15L21.7474 9.75L14.7499 4.5Z" fill="white"/>
</svg>
