<svg width="24" height="24" viewBox="0 0 24 24" fill="none" xmlns="http://www.w3.org/2000/svg">
<path d="M7 9.00001L11 2.00001H11.69C11.978 1.99717 12.2631 2.05655 12.526 2.17409C12.7889 2.29162 13.0233 2.46455 13.2132 2.68103C13.4031 2.89752 13.544 3.15246 13.6263 3.42843C13.7086 3.70439 13.7303 3.99487 13.69 4.28001L13 9.00001H19.67C19.9599 8.99672 20.2471 9.05651 20.5116 9.17522C20.7761 9.29394 21.0116 9.46874 21.2019 9.68752C21.3921 9.9063 21.5325 10.1638 21.6133 10.4423C21.6942 10.7207 21.7135 11.0134 21.67 11.3L20.28 20.3C20.2077 20.7769 19.9654 21.2116 19.5979 21.524C19.2304 21.8364 18.7623 22.0055 18.28 22H7V9.00001Z" stroke="#0583D2" stroke-width="1.5" stroke-linecap="round" stroke-linejoin="round"/>
<path d="M2 11V20C2 20.5304 2.21071 21.0391 2.58579 21.4142C2.96086 21.7893 3.46957 22 4 22H7V9H4C3.46957 9 2.96086 9.21071 2.58579 9.58579C2.21071 9.96086 2 10.4696 2 11V11Z" stroke="#0583D2" stroke-width="1.5" stroke-linecap="round" stroke-linejoin="round"/>
</svg>
