<svg width="24" height="24" viewBox="0 0 24 24" fill="none" xmlns="http://www.w3.org/2000/svg">
<path d="M19.22 13.27L20.4 14.75C20.6354 15.0441 20.783 15.3987 20.8258 15.7729C20.8686 16.1472 20.8048 16.5259 20.6418 16.8655C20.4788 17.2051 20.2232 17.4918 19.9044 17.6925C19.5857 17.8932 19.2167 17.9998 18.84 18H5.16001C4.78331 17.9998 4.41435 17.8932 4.09558 17.6925C3.77682 17.4918 3.52122 17.2051 3.35821 16.8655C3.1952 16.5259 3.13142 16.1472 3.17419 15.7729C3.21697 15.3987 3.36457 15.0441 3.60001 14.75L4.78001 13.27C4.92117 13.0941 4.9987 12.8756 5.00001 12.65V9.29004C4.97368 7.43558 5.66397 5.64249 6.92703 4.28442C8.1901 2.92634 9.92851 2.10804 11.78 2.00004C12.7176 1.97056 13.6516 2.12983 14.5264 2.46839C15.4012 2.80695 16.1991 3.31789 16.8726 3.97086C17.5461 4.62383 18.0815 5.4055 18.4469 6.26945C18.8124 7.13339 19.0005 8.06198 19 9.00004V12.65C19.0013 12.8756 19.0788 13.0941 19.22 13.27V13.27Z" stroke="#0583D2" stroke-width="1.5" stroke-linecap="round" stroke-linejoin="round"/>
<path d="M16 18C16 19.0609 15.5786 20.0783 14.8284 20.8284C14.0783 21.5786 13.0609 22 12 22C10.9391 22 9.92172 21.5786 9.17157 20.8284C8.42143 20.0783 8 19.0609 8 18" stroke="#0583D2" stroke-width="1.5" stroke-linecap="round" stroke-linejoin="round"/>
</svg>
