<svg width="15" height="14" viewBox="0 0 15 14" fill="none" xmlns="http://www.w3.org/2000/svg">
<path d="M7.10865 1.1665C4.8161 1.1665 2.96191 2.99234 2.96191 5.24984C2.96191 8.31234 7.10865 12.8332 7.10865 12.8332C7.10865 12.8332 11.2554 8.31234 11.2554 5.24984C11.2554 2.99234 9.40121 1.1665 7.10865 1.1665ZM7.10865 6.70817C6.71587 6.70817 6.33918 6.55453 6.06144 6.28103C5.78371 6.00754 5.62768 5.63661 5.62768 5.24984C5.62768 4.86306 5.78371 4.49213 6.06144 4.21864C6.33918 3.94515 6.71587 3.7915 7.10865 3.7915C7.50143 3.7915 7.87813 3.94515 8.15586 4.21864C8.4336 4.49213 8.58963 4.86306 8.58963 5.24984C8.58963 5.63661 8.4336 6.00754 8.15586 6.28103C7.87813 6.55453 7.50143 6.70817 7.10865 6.70817Z" fill="#FD2400"/>
</svg>
