<svg width="21" height="21" viewBox="0 0 21 21" fill="none" xmlns="http://www.w3.org/2000/svg">
<path d="M5.82927 17.813L10.8512 17.8125L10.8511 16.6965L5.82917 16.697C5.68118 16.697 5.53924 16.6382 5.43459 16.5336C5.32994 16.429 5.27114 16.287 5.27112 16.1391L5.26995 3.86325C5.26993 3.71526 5.32871 3.57332 5.43334 3.46867C5.53798 3.36402 5.6799 3.30521 5.82789 3.3052L10.8498 3.30472L10.8497 2.18874L5.82778 2.18922C5.38381 2.18926 4.95805 2.36567 4.64415 2.67963C4.33025 2.99359 4.15392 3.41939 4.15397 3.86335L4.15514 16.1392C4.15518 16.5831 4.33159 17.0089 4.64555 17.3228C4.95951 17.6367 5.38531 17.813 5.82927 17.813V17.813Z" fill="#0583D2"/>
<path d="M7.73686 9.44253L7.73697 10.5585L15.8725 10.5577L13.6407 12.7899L14.4332 13.5989L17.2228 10.8087C17.3266 10.7051 17.4089 10.582 17.465 10.4465C17.5212 10.311 17.5501 10.1658 17.5501 10.0191C17.5501 9.87246 17.5211 9.72724 17.465 9.59177C17.4088 9.4563 17.3265 9.33323 17.2227 9.22959L14.4325 6.4399L13.6402 7.21L15.8724 9.44176L7.73686 9.44253Z" fill="#0583D2"/>
</svg>
