<svg width="16" height="16" viewBox="0 0 16 16" fill="none" xmlns="http://www.w3.org/2000/svg">
<path d="M6.66667 6.66634C8.13943 6.66634 9.33333 5.47243 9.33333 3.99967C9.33333 2.52692 8.13943 1.33301 6.66667 1.33301C5.19391 1.33301 4 2.52692 4 3.99967C4 5.47243 5.19391 6.66634 6.66667 6.66634Z" stroke="#757272" stroke-linecap="round" stroke-linejoin="round"/>
<path d="M10.4467 14.6664C10.6537 14.6664 10.8578 14.6182 11.043 14.5256C11.2281 14.4331 11.3892 14.2987 11.5134 14.1331C11.6375 13.9675 11.7215 13.7752 11.7585 13.5716C11.7955 13.3679 11.7846 13.1584 11.7267 12.9597C11.3874 11.8902 10.7113 10.9592 9.79937 10.3055C8.8874 9.65188 7.78848 9.31075 6.66668 9.33306C5.54489 9.31075 4.44596 9.65188 3.534 10.3055C2.62203 10.9592 1.94594 11.8902 1.60668 12.9597C1.54856 13.159 1.53777 13.3691 1.57515 13.5732C1.61253 13.7774 1.69706 13.97 1.82201 14.1357C1.94696 14.3015 2.10888 14.4357 2.29487 14.5279C2.48086 14.62 2.68579 14.6674 2.89335 14.6664H10.4467Z" stroke="#757272" stroke-linecap="round" stroke-linejoin="round"/>
<path d="M11.22 2.11328C11.4623 2.35723 11.6567 2.6444 11.7933 2.95995C12.0689 3.6259 12.0689 4.374 11.7933 5.03995C11.6567 5.35549 11.4623 5.64267 11.22 5.88661" stroke="#757272" stroke-linecap="round" stroke-linejoin="round"/>
<path d="M14.5333 13.24C14.1984 11.5786 13.3043 10.0822 12 9" stroke="#757272" stroke-linecap="round" stroke-linejoin="round"/>
</svg>
