<svg width="16" height="18" viewBox="0 0 16 18" fill="none" xmlns="http://www.w3.org/2000/svg">
<path d="M13.4806 7.33984H2.59169C1.73258 7.33984 1.03613 8.03629 1.03613 8.8954V15.1176C1.03613 15.9767 1.73258 16.6732 2.59169 16.6732H13.4806C14.3397 16.6732 15.0361 15.9767 15.0361 15.1176V8.8954C15.0361 8.03629 14.3397 7.33984 13.4806 7.33984Z" stroke="#292B41" stroke-width="1.5" stroke-linecap="round" stroke-linejoin="round"/>
<path d="M4.14725 7.33978V5.00644C4.14725 3.97505 4.55697 2.98589 5.28628 2.25658C6.01558 1.52727 7.00474 1.11755 8.03614 1.11755V1.11755C8.63987 1.11755 9.23531 1.25812 9.7753 1.52811C10.3153 1.79811 10.785 2.19012 11.1472 2.67311C11.3904 3.00372 11.5843 3.36789 11.7228 3.75422" stroke="#292B41" stroke-width="1.5" stroke-linecap="round" stroke-linejoin="round"/>
</svg>
