<svg width="16" height="16" viewBox="0 0 16 16" fill="none" xmlns="http://www.w3.org/2000/svg">
<path d="M2.53337 8.13335L5.25337 6.46001C5.47606 6.32303 5.65355 6.12361 5.76379 5.88654C5.87402 5.64947 5.91213 5.38523 5.87337 5.12668L5.50004 2.46001C5.45071 2.14558 5.29052 1.85916 5.04843 1.65253C4.80634 1.4459 4.49832 1.33268 4.18004 1.33335H2.66671C2.31309 1.33335 1.97395 1.47382 1.7239 1.72387C1.47385 1.97392 1.33337 2.31306 1.33337 2.66668V3.33335C1.33337 6.33913 2.52742 9.22181 4.65283 11.3472C6.77824 13.4726 9.66092 14.6667 12.6667 14.6667H13.3334C13.687 14.6667 14.0261 14.5262 14.2762 14.2762C14.5262 14.0261 14.6667 13.687 14.6667 13.3333V11.82C14.6699 11.4965 14.5553 11.1828 14.3444 10.9375C14.1334 10.6922 13.8404 10.532 13.52 10.4867L10.8534 10.1133C10.5948 10.0746 10.3306 10.1127 10.0935 10.2229C9.85645 10.3332 9.65702 10.5107 9.52004 10.7333L7.86671 13.4667" stroke="#292B41" stroke-width="1.5" stroke-linecap="round" stroke-linejoin="round"/>
</svg>
