<svg width="20" height="20" viewBox="0 0 20 20" fill="none" xmlns="http://www.w3.org/2000/svg">
<path d="M4.08276 10.7402H15.9173V15.9178C15.9173 16.3102 15.7614 16.6864 15.484 16.9639C15.2066 17.2413 14.8303 17.3971 14.438 17.3971H5.56208C5.16974 17.3971 4.79347 17.2413 4.51604 16.9639C4.23862 16.6864 4.08276 16.3102 4.08276 15.9178V10.7402Z" stroke="#0583D2" stroke-width="1.5" stroke-linecap="round" stroke-linejoin="round"/>
<path d="M15.9173 7.04102H4.08283C3.26583 7.04102 2.60352 7.70333 2.60352 8.52033V9.25999C2.60352 10.077 3.26583 10.7393 4.08283 10.7393H15.9173C16.7343 10.7393 17.3966 10.077 17.3966 9.25999V8.52033C17.3966 7.70333 16.7343 7.04102 15.9173 7.04102Z" stroke="#0583D2" stroke-width="1.5" stroke-linecap="round" stroke-linejoin="round"/>
<path d="M10.0001 7.04166H6.70119C6.17041 7.04878 5.65466 6.86538 5.24753 6.52475C4.84041 6.18412 4.56888 5.70883 4.48222 5.18512V5.18512C4.42918 4.86488 4.44703 4.53691 4.53453 4.22433C4.62203 3.91175 4.77705 3.62217 4.98864 3.37602C5.20023 3.12986 5.46325 2.93313 5.75915 2.79969C6.05505 2.66625 6.37663 2.59935 6.70119 2.60372H6.92309C7.38793 2.60459 7.84076 2.75141 8.21766 3.02348C8.59457 3.29554 8.87652 3.67909 9.02372 4.12001L10.0001 7.04166Z" stroke="#0583D2" stroke-width="1.5" stroke-linecap="round" stroke-linejoin="round"/>
<path d="M13.2989 7.04178H10L10.9763 4.12014C11.1298 3.68613 11.4144 3.31059 11.7908 3.04554C12.1672 2.78049 12.6166 2.63905 13.077 2.64083H13.2989C13.6234 2.63646 13.945 2.70336 14.2409 2.8368C14.5368 2.97024 14.7998 3.16697 15.0114 3.41313C15.223 3.65928 15.378 3.94886 15.4655 4.26144C15.553 4.57402 15.5709 4.90199 15.5178 5.22223V5.22223C15.4233 5.73915 15.1484 6.20576 14.7421 6.53897C14.3357 6.87217 13.8243 7.05035 13.2989 7.04178Z" stroke="#0583D2" stroke-width="1.5" stroke-linecap="round" stroke-linejoin="round"/>
<path d="M10 17.3962V7.04102" stroke="#0583D2" stroke-width="1.5" stroke-linecap="round" stroke-linejoin="round"/>
</svg>
