<svg width="24" height="24" viewBox="0 0 24 24" fill="none" xmlns="http://www.w3.org/2000/svg">
<path fill-rule="evenodd" clip-rule="evenodd" d="M12 22.5C6.201 22.5 1.5 17.799 1.5 12C1.5 6.201 6.201 1.5 12 1.5C17.799 1.5 22.5 6.201 22.5 12C22.5 17.799 17.799 22.5 12 22.5ZM12 2.5C6.7535 2.5 2.5 6.7535 2.5 12C2.5 17.2465 6.7535 21.5 12 21.5C17.2465 21.5 21.5 17.2465 21.5 12C21.5 6.7535 17.2465 2.5 12 2.5ZM20 12.5H19.5C19.2235 12.5 19 12.2765 19 12C19 11.7235 19.2235 11.5 19.5 11.5H20C20.2765 11.5 20.5 11.7235 20.5 12C20.5 12.2765 20.2765 12.5 20 12.5ZM16.9895 16.602C16.9735 16.696 16.932 16.7855 16.859 16.859C16.705 17.0125 16.478 17.0365 16.2945 16.945L16.3235 16.9745L16.3275 16.9785C16.2465 16.945 16.1745 16.9135 16.0955 16.881C13.501 15.8 11.989 14.953 11.162 14.412C10.5055 13.983 10.2745 13.7455 10.265 13.7355C10.2425 13.714 9.021 12.5295 7.0225 7.673H7.023C7.023 7.673 7.023 7.673 7.0225 7.673L7.056 7.7065C7.051 7.6965 7.05 7.6855 7.046 7.6755C7 7.5695 6.995 7.454 7.027 7.345C7.049 7.2715 7.0825 7.2 7.1415 7.1415C7.291 6.992 7.5105 6.9665 7.692 7.051C7.6965 7.053 7.702 7.0535 7.706 7.056L7.6945 7.0435L7.673 7.0225C7.673 7.0225 7.673 7.0225 7.6735 7.0225H7.673C12.5295 9.021 13.714 10.2425 13.7355 10.265C13.758 10.2865 14.9795 11.4715 16.978 16.3275L16.9775 16.327C16.978 16.327 16.978 16.3275 16.978 16.3275L16.956 16.3055L16.9445 16.2945C16.956 16.318 16.9605 16.343 16.9685 16.3675C16.993 16.444 17.003 16.5235 16.9895 16.602ZM13.023 10.9665C13.0125 10.956 12.015 10.003 8.4295 8.43C10.0025 12.0155 10.957 13.0135 10.977 13.034C10.9875 13.0445 11.985 13.998 15.5705 15.5705C13.9975 11.9845 13.043 10.987 13.023 10.9665ZM12 11.5C12.2765 11.5 12.5 11.7235 12.5 12C12.5 12.2765 12.2765 12.5 12 12.5C11.7235 12.5 11.5 12.2765 11.5 12C11.5 11.7235 11.7235 11.5 12 11.5ZM12 5C11.7235 5 11.5 4.776 11.5 4.5V4C11.5 3.724 11.7235 3.5 12 3.5C12.2765 3.5 12.5 3.724 12.5 4V4.5C12.5 4.776 12.2765 5 12 5ZM12 19C12.2765 19 12.5 19.2235 12.5 19.5V20C12.5 20.2765 12.2765 20.5 12 20.5C11.7235 20.5 11.5 20.2765 11.5 20V19.5C11.5 19.2235 11.7235 19 12 19ZM4.5 12.5H4C3.7235 12.5 3.5 12.2765 3.5 12C3.5 11.7235 3.7235 11.5 4 11.5H4.5C4.7765 11.5 5 11.7235 5 12C5 12.2765 4.7765 12.5 4.5 12.5Z" fill="black"/>
</svg>
