<svg width="20" height="20" viewBox="0 0 20 20" fill="none" xmlns="http://www.w3.org/2000/svg">
<path d="M10 12.5C11.3807 12.5 12.5 11.3807 12.5 10C12.5 8.61929 11.3807 7.5 10 7.5C8.61929 7.5 7.5 8.61929 7.5 10C7.5 11.3807 8.61929 12.5 10 12.5Z" stroke="#0583D2" stroke-width="1.5" stroke-linecap="round" stroke-linejoin="round"/>
<path d="M16.4501 11.667H17.5001C17.7211 11.667 17.9331 11.5792 18.0893 11.4229C18.2456 11.2666 18.3334 11.0547 18.3334 10.8337V9.16699C18.3334 8.94598 18.2456 8.73402 18.0893 8.57774C17.9331 8.42146 17.7211 8.33366 17.5001 8.33366H16.4501V8.21699C16.2917 7.65663 16.062 7.11891 15.7667 6.61699L16.5084 5.87533C16.6636 5.71919 16.7507 5.50798 16.7507 5.28783C16.7507 5.06767 16.6636 4.85646 16.5084 4.70033L15.3001 3.51699C15.1439 3.36178 14.9327 3.27467 14.7126 3.27467C14.4924 3.27467 14.2812 3.36178 14.1251 3.51699L13.3834 4.25866C12.8475 3.94072 12.2697 3.69948 11.6667 3.54199V2.50033C11.6667 2.27931 11.579 2.06735 11.4227 1.91107C11.2664 1.75479 11.0544 1.66699 10.8334 1.66699H9.16675C8.94573 1.66699 8.73377 1.75479 8.57749 1.91107C8.42121 2.06735 8.33342 2.27931 8.33342 2.50033V3.54199C7.73051 3.69948 7.15267 3.94072 6.61675 4.25866L5.87508 3.51699C5.71895 3.36178 5.50774 3.27467 5.28758 3.27467C5.06743 3.27467 4.85622 3.36178 4.70008 3.51699L3.51675 4.70033C3.36154 4.85646 3.27442 5.06767 3.27442 5.28783C3.27442 5.50798 3.36154 5.71919 3.51675 5.87533L4.25841 6.61699C3.96315 7.11891 3.7335 7.65663 3.57508 8.21699V8.33366H2.50008C2.27907 8.33366 2.06711 8.42146 1.91083 8.57774C1.75455 8.73402 1.66675 8.94598 1.66675 9.16699V10.8337C1.66675 11.0547 1.75455 11.2666 1.91083 11.4229C2.06711 11.5792 2.27907 11.667 2.50008 11.667H3.55008V11.7837C3.7085 12.344 3.93815 12.8817 4.23341 13.3837L3.51675 14.167C3.36154 14.3231 3.27442 14.5343 3.27442 14.7545C3.27442 14.9746 3.36154 15.1859 3.51675 15.342L4.70008 16.5253C4.85622 16.6805 5.06743 16.7677 5.28758 16.7677C5.50774 16.7677 5.71895 16.6805 5.87508 16.5253L6.61675 15.7837C7.15267 16.1016 7.73051 16.3428 8.33342 16.5003V17.5003C8.33342 17.7213 8.42121 17.9333 8.57749 18.0896C8.73377 18.2459 8.94573 18.3337 9.16675 18.3337H10.8334C11.0544 18.3337 11.2664 18.2459 11.4227 18.0896C11.579 17.9333 11.6667 17.7213 11.6667 17.5003V16.4587C12.2697 16.3012 12.8475 16.0599 13.3834 15.742L14.1251 16.4837C14.2812 16.6389 14.4924 16.726 14.7126 16.726C14.9327 16.726 15.1439 16.6389 15.3001 16.4837L16.4834 15.3003C16.6386 15.1442 16.7257 14.933 16.7257 14.7128C16.7257 14.4927 16.6386 14.2815 16.4834 14.1253L15.7417 13.3837C16.037 12.8817 16.2667 12.344 16.4251 11.7837L16.4501 11.667Z" stroke="#0583D2" stroke-width="1.5" stroke-linecap="round" stroke-linejoin="round"/>
</svg>
