<svg width="20" height="21" viewBox="0 0 20 21" fill="none" xmlns="http://www.w3.org/2000/svg">
<g clip-path="url(#clip0_1007_6426)">
<path d="M10.0003 1.41651C8.26234 1.41669 6.55712 1.88949 5.0672 2.78431C3.57727 3.67913 2.35873 4.96228 1.54201 6.49641C0.72529 8.03054 0.34114 9.7579 0.43068 11.4936C0.520219 13.2292 1.08008 14.9079 2.05033 16.3498L0.416992 20.5832L4.77533 19.0248C6.02527 19.8407 7.44852 20.3534 8.93164 20.5219C10.4148 20.6904 11.9167 20.5102 13.3179 19.9955C14.719 19.4808 15.9805 18.646 17.0019 17.5575C18.0233 16.4691 18.7764 15.157 19.201 13.7261C19.6256 12.2951 19.7101 10.7847 19.4477 9.31525C19.1853 7.84583 18.5833 6.45801 17.6897 5.26241C16.796 4.06682 15.6355 3.0965 14.3005 2.42879C12.9655 1.76108 11.493 1.41445 10.0003 1.41651V1.41651Z" stroke="white" stroke-linecap="round" stroke-linejoin="round"/>
<path d="M7.9171 13.0832C9.00044 14.1665 11.3921 15.5832 12.5004 15.5832C12.9866 15.5882 13.4596 15.425 13.8393 15.1213C14.2189 14.8175 14.4819 14.3919 14.5838 13.9165V13.0832C14.5838 13.0832 13.5588 12.5832 12.9171 12.2498C12.2754 11.9165 11.2504 13.0832 11.2504 13.0832C10.4705 12.8291 9.75829 12.4017 9.1671 11.8332C8.59853 11.242 8.17118 10.5297 7.9171 9.74984C7.9171 9.74984 9.08377 8.72484 8.75044 8.08317C8.4171 7.4415 7.9171 6.4165 7.9171 6.4165H7.08377C6.60835 6.51833 6.18273 6.78135 5.87899 7.16102C5.57526 7.54068 5.41209 8.01365 5.4171 8.49984C5.4171 9.60817 6.83377 11.9998 7.9171 13.0832Z" stroke="white" stroke-linecap="round" stroke-linejoin="round"/>
</g>
<defs>
<clipPath id="clip0_1007_6426">
<rect width="20" height="21" fill="white"/>
</clipPath>
</defs>
</svg>
