<svg width="21" height="18" viewBox="0 0 21 18" fill="none" xmlns="http://www.w3.org/2000/svg">
<path d="M10.588 15.8472C12.3984 15.8472 13.866 14.3796 13.866 12.5692C13.866 10.7589 12.3984 9.29126 10.588 9.29126C8.77766 9.29126 7.31007 10.7589 7.31007 12.5692C7.31007 14.3796 8.77766 15.8472 10.588 15.8472Z" stroke="#1F2243" stroke-width="2.5" stroke-linecap="round" stroke-linejoin="round"/>
<path d="M3.91627 6.44221L2.27728 4.80322" stroke="#1F2243" stroke-width="2.5" stroke-linecap="round" stroke-linejoin="round"/>
<path d="M17.2598 6.44221L18.8988 4.80322" stroke="#1F2243" stroke-width="2.5" stroke-linecap="round" stroke-linejoin="round"/>
<path d="M10.5881 4.16834V1.84717" stroke="#1F2243" stroke-width="2.5" stroke-linecap="round" stroke-linejoin="round"/>
<path d="M1.95549 11.338C2.50349 9.50196 3.6225 7.88845 5.15001 6.73178C6.67752 5.57511 8.53398 4.93552 10.4498 4.90587C12.3656 4.87621 14.2409 5.45805 15.8035 6.56688C17.3661 7.67571 18.5345 9.25379 19.1391 11.0719" stroke="#1F2243" stroke-width="2.5" stroke-linecap="round" stroke-linejoin="round"/>
</svg>
