<svg width="20" height="21" viewBox="0 0 20 21" fill="none" xmlns="http://www.w3.org/2000/svg">
<path d="M4.16663 13C5.54734 13 6.66663 11.8807 6.66663 10.5C6.66663 9.11929 5.54734 8 4.16663 8C2.78591 8 1.66663 9.11929 1.66663 10.5C1.66663 11.8807 2.78591 13 4.16663 13Z" stroke="#0583D2" stroke-linecap="round" stroke-linejoin="round"/>
<path d="M15.8334 18.8335C17.2141 18.8335 18.3334 17.7142 18.3334 16.3335C18.3334 14.9528 17.2141 13.8335 15.8334 13.8335C14.4527 13.8335 13.3334 14.9528 13.3334 16.3335C13.3334 17.7142 14.4527 18.8335 15.8334 18.8335Z" stroke="#0583D2" stroke-linecap="round" stroke-linejoin="round"/>
<path d="M15.8334 7.1665C17.2141 7.1665 18.3334 6.04722 18.3334 4.6665C18.3334 3.28579 17.2141 2.1665 15.8334 2.1665C14.4527 2.1665 13.3334 3.28579 13.3334 4.6665C13.3334 6.04722 14.4527 7.1665 15.8334 7.1665Z" stroke="#0583D2" stroke-linecap="round" stroke-linejoin="round"/>
<path d="M6.33337 11.75L13.4584 15.5" stroke="#0583D2" stroke-linecap="round" stroke-linejoin="round"/>
<path d="M13.6666 5.9165L6.54163 9.6665" stroke="#0583D2" stroke-linecap="round" stroke-linejoin="round"/>
</svg>
