<svg width="184" height="165" viewBox="0 0 184 165" fill="none" xmlns="http://www.w3.org/2000/svg">
<g clip-path="url(#clip0_975_6334)">
<path opacity="0.73" d="M151.422 144.17C151.422 144.17 148.726 138.454 152.271 136.37C155.817 134.286 161.41 138.063 159.996 140.967C159.527 141.824 158.864 142.561 158.06 143.122C157.256 143.683 156.333 144.052 155.361 144.201L151.422 144.17Z" fill="#0583D2"/>
<path d="M126.169 70.5435C126.169 70.5435 139.301 90.5266 126.169 129.459" stroke="#24285B" stroke-width="8.12" stroke-linecap="round" stroke-linejoin="round"/>
<path d="M41.3637 82.604C41.3637 82.604 25.5815 100.993 32.2868 110.188C38.9921 119.383 55.8171 111.414 61.3096 93.6147" stroke="#24285B" stroke-width="8.12" stroke-linecap="round" stroke-linejoin="round"/>
<path d="M36.3655 78.1294C36.3655 78.1294 29.8147 79.1638 30.5563 84.06C31.2979 88.9562 38.9689 95.2928 44.3223 93.2547C49.6757 91.2165 46.887 82.6041 46.887 82.6041L36.3655 78.1294Z" fill="#FFD200"/>
<path opacity="0.44" d="M36.3655 78.1294C36.3655 78.1294 29.8147 79.1638 30.5563 84.06C31.2979 88.9562 38.9689 95.2928 44.3223 93.2547C49.6757 91.2165 46.887 82.6041 46.887 82.6041L36.3655 78.1294Z" fill="white"/>
<path d="M63.2641 37.8642C63.2651 36.8447 63.0634 35.8349 62.6705 34.8927C62.2775 33.9505 61.7012 33.0945 60.9743 32.3735C60.2475 31.6526 59.3844 31.0809 58.4345 30.6912C57.4846 30.3014 56.4666 30.1014 55.4386 30.1024C55.0166 30.1035 54.5955 30.1394 54.1795 30.2096C53.2804 28.5462 51.9437 27.1555 50.3114 26.1855C48.6791 25.2154 46.8123 24.7022 44.9095 24.7005H44.5232C44.7737 23.7184 44.9034 22.7099 44.9095 21.6969C44.9095 18.4028 43.5902 15.2435 41.2418 12.9143C38.8934 10.585 35.7083 9.27637 32.3872 9.27637C29.0661 9.27637 25.8811 10.585 23.5327 12.9143C21.1843 15.2435 19.865 18.4028 19.865 21.6969C19.8711 22.7099 20.0008 23.7184 20.2513 24.7005H19.865C17.1168 24.7743 14.5061 25.909 12.5886 27.8631C10.6711 29.8172 9.59814 32.4364 9.59814 35.1633C9.59814 37.8902 10.6711 40.5094 12.5886 42.4635C14.5061 44.4176 17.1168 45.5523 19.865 45.6261H56.4583V45.5495C58.3405 45.3074 60.0694 44.3938 61.3219 42.9795C62.5744 41.5651 63.2648 39.7467 63.2641 37.8642V37.8642Z" fill="#EFEFEF"/>
<path d="M123.898 21.6663C123.898 20.132 124.512 18.6606 125.606 17.5757C126.7 16.4908 128.183 15.8813 129.73 15.8813C130.043 15.882 130.356 15.9102 130.665 15.9656C131.34 14.7203 132.343 13.6804 133.567 12.957C134.792 12.2336 136.192 11.854 137.617 11.8586H137.903C137.717 11.1243 137.621 10.3706 137.617 9.61356C137.581 8.37513 137.796 7.14213 138.249 5.98753C138.702 4.83294 139.384 3.7802 140.255 2.89163C141.125 2.00306 142.166 1.2967 143.317 0.81436C144.467 0.332019 145.704 0.0834961 146.953 0.0834961C148.202 0.0834961 149.438 0.332019 150.589 0.81436C151.739 1.2967 152.781 2.00306 153.651 2.89163C154.522 3.7802 155.204 4.83294 155.657 5.98753C156.11 7.14213 156.324 8.37513 156.289 9.61356C156.286 10.3711 156.187 11.1254 155.995 11.8586H156.289C158.374 11.8586 160.374 12.6804 161.849 14.1432C163.324 15.606 164.153 17.59 164.153 19.6588C164.153 21.7275 163.324 23.7115 161.849 25.1743C160.374 26.6371 158.374 27.4589 156.289 27.4589H128.934V27.436C127.532 27.2444 126.247 26.5534 125.321 25.4918C124.394 24.4302 123.888 23.0705 123.898 21.6663V21.6663Z" fill="#EFEFEF"/>
<path opacity="0.45" d="M92.3717 164.728C143.197 164.728 184.4 160.505 184.4 155.296C184.4 150.087 143.197 145.864 92.3717 145.864C41.5461 145.864 0.34375 150.087 0.34375 155.296C0.34375 160.505 41.5461 164.728 92.3717 164.728Z" fill="#E6E6E6"/>
<path d="M103.882 100.266C103.882 100.266 104.338 123.919 99.533 140.523" stroke="#24285B" stroke-width="8.12" stroke-linecap="round" stroke-linejoin="round"/>
<path d="M109.05 123.919H92.7195V154.821H123.859L107.281 144.737L109.05 123.919Z" fill="#FFD200"/>
<path d="M78.8377 100.266C78.8377 100.266 74.0327 123.919 78.8377 140.523" stroke="#24285B" stroke-width="8.12" stroke-linecap="round" stroke-linejoin="round"/>
<path d="M88.0611 110.219C114.602 110.219 136.118 88.8773 136.118 62.5517C136.118 36.226 114.602 14.8848 88.0611 14.8848C61.5199 14.8848 40.0039 36.226 40.0039 62.5517C40.0039 88.8773 61.5199 110.219 88.0611 110.219Z" fill="#0583D2"/>
<path opacity="0.09" d="M117.092 24.6543C124.511 33.7116 128.322 45.1542 127.802 56.8129C127.282 68.4716 122.468 79.5359 114.272 87.9083C106.076 96.2808 95.0671 101.379 83.3333 102.238C71.5996 103.096 59.9562 99.6542 50.6104 92.5649C54.882 97.8114 60.2275 102.099 66.2935 105.145C72.3596 108.191 79.0081 109.925 85.8 110.234C92.5919 110.542 99.3724 109.418 105.694 106.934C112.015 104.451 117.733 100.666 122.47 95.8285C127.208 90.9912 130.856 85.2118 133.175 78.8723C135.493 72.5328 136.429 65.7775 135.921 59.0526C135.413 52.3277 133.471 45.7863 130.226 39.8607C126.98 33.935 122.503 28.7599 117.092 24.6773V24.6543Z" fill="black"/>
<path d="M73.7865 64.1751C76.2961 63.6745 77.4278 58.8159 76.3142 53.323C75.2005 47.8301 72.2634 43.783 69.7538 44.2836C67.2442 44.7842 66.1125 49.6428 67.2261 55.1357C68.3397 60.6285 71.2769 64.6756 73.7865 64.1751Z" fill="#24285B"/>
<path d="M101.542 58.634C104.052 58.1335 105.183 53.2748 104.07 47.782C102.956 42.2891 100.019 38.242 97.5094 38.7426C94.9998 39.2431 93.8681 44.1018 94.9817 49.5947C96.0953 55.0875 99.0325 59.1346 101.542 58.634Z" fill="#24285B"/>
<path d="M116.551 86.8488C116.551 86.8488 111.368 68.4594 90.4715 73.2866C69.5754 78.1138 72.48 95.6297 72.48 95.6297" stroke="#24285B" stroke-width="3.045" stroke-linecap="round" stroke-linejoin="round"/>
<path opacity="0.36" d="M64.7793 73.4124C68.5437 72.6616 71.2708 70.452 70.8705 68.4772C70.4701 66.5025 67.0939 65.5103 63.3295 66.2611C59.5651 67.0119 56.838 69.2215 57.2383 71.1963C57.6387 73.171 61.0149 74.1632 64.7793 73.4124Z" fill="white"/>
<path opacity="0.36" d="M114.362 63.5213C118.127 62.7705 120.854 60.5609 120.453 58.5861C120.053 56.6113 116.677 55.6191 112.912 56.37C109.148 57.1208 106.421 59.3304 106.821 61.3051C107.222 63.2799 110.598 64.2721 114.362 63.5213Z" fill="white"/>
<path d="M68.8414 122.31L84.9557 124.984L79.8109 155.464L49.104 150.369L67.1264 143.136L68.8414 122.31Z" fill="#FFD200"/>
<path d="M123.442 119.536C123.442 119.536 113.631 120.21 114.512 125.528C115.392 130.845 119.641 130.838 119.641 130.838C119.641 130.838 115.779 141.151 125.219 141.389C134.659 141.626 139.603 129.788 136.806 122.586C134.01 115.383 123.442 119.536 123.442 119.536Z" fill="#FFD200"/>
<path d="M138.142 112.188C138.142 112.188 116.953 105.07 117.663 113.828C118.374 122.586 129.792 121.229 136.095 122.486C142.399 123.743 145.875 115.759 138.142 112.188Z" fill="#FFD200"/>
<path opacity="0.44" d="M138.142 112.188C138.142 112.188 116.953 105.07 117.663 113.828C118.374 122.586 129.792 121.229 136.095 122.486C142.399 123.743 145.875 115.759 138.142 112.188Z" fill="white"/>
<path d="M147.922 144.17L149.436 154.422L158.946 154.461L160.352 144.224L147.922 144.17Z" fill="#24285B"/>
<path d="M64.5696 48.6754C66.2809 47.6472 67.7463 46.2621 68.8641 44.6162C69.9819 42.9703 70.7254 41.1029 71.0431 39.1436" stroke="#24285B" stroke-width="3.045" stroke-linecap="round" stroke-linejoin="round"/>
<path d="M94.2566 34.7534C96.835 38.2794 100.563 40.8131 104.809 41.9253" stroke="#24285B" stroke-width="3.045" stroke-linecap="round" stroke-linejoin="round"/>
<path d="M36.4504 68.4823C36.4504 68.4823 32.8815 47.097 42.8544 50.0929C49.1812 52.0085 43.063 62.705 45.1719 68.4823C47.2809 74.2597 51.8618 83.1939 47.3427 86.4427C42.8235 89.6915 34.5346 89.1781 36.4504 68.4823Z" fill="#FFD200"/>
<path d="M154.133 144.201C154.133 144.201 153.917 139.374 158.452 139.044C162.986 138.715 167.065 146.216 163.581 150.714L160.027 144.323L154.133 144.201Z" fill="#0583D2"/>
<path opacity="0.58" d="M154.133 144.201C154.133 144.201 152.719 138.5 147.953 139.037C143.187 139.573 141.325 145.825 143.951 149.932L147.953 144.17L154.133 144.201Z" fill="#0583D2"/>
</g>
<defs>
<clipPath id="clip0_975_6334">
<rect width="184" height="165" fill="white"/>
</clipPath>
</defs>
</svg>
