<svg width="1027" height="953" viewBox="0 0 1027 953" fill="none" xmlns="http://www.w3.org/2000/svg">
<g opacity="0.2">
<path fill-rule="evenodd" clip-rule="evenodd" d="M540.2 645.303C510.509 649.029 474.926 662.064 446.584 652.537C418.242 643.01 381.953 628.673 360.544 607.791C339.135 586.909 331.704 545.575 321.476 517.471C311.249 489.367 311.321 468.265 314.298 438.506C317.276 408.747 329.866 372.504 345.459 346.984C361.052 321.464 385.804 307.403 410.924 291.176C436.044 274.95 464.741 264.973 494.414 261.255C524.086 257.536 545.649 247.376 573.996 256.902C602.343 266.427 625.856 275.931 647.263 296.813C668.671 317.696 692.226 351.065 702.453 379.17C712.68 407.275 702.895 430.926 699.921 460.682C696.947 490.437 697.624 518.944 682.017 544.479C666.41 570.013 626.289 619.268 601.222 635.44C576.154 651.612 569.891 641.577 540.2 645.303H540.2Z" stroke="white" stroke-width="2"/>
<path fill-rule="evenodd" clip-rule="evenodd" d="M470.185 686.303C440.494 690.029 404.911 703.064 376.569 693.537C348.227 684.01 311.938 669.673 290.529 648.791C269.121 627.909 261.689 586.575 251.462 558.471C241.234 530.367 241.306 509.265 244.284 479.506C247.261 449.747 259.852 413.504 275.445 387.984C291.038 362.464 315.789 348.403 340.91 332.176C366.03 315.95 394.727 305.973 424.399 302.255C454.071 298.536 475.634 288.376 503.981 297.902C532.328 307.427 555.841 316.931 577.249 337.813C598.656 358.696 622.211 392.065 632.438 420.17C642.665 448.275 632.88 471.926 629.906 501.682C626.933 531.437 627.609 559.944 612.002 585.479C596.395 611.013 556.274 660.268 531.207 676.44C506.14 692.612 499.876 682.577 470.185 686.303H470.185Z" stroke="white" stroke-width="2"/>
<path fill-rule="evenodd" clip-rule="evenodd" d="M616.528 651.985C585.642 667.827 552.026 696.155 517.353 697.016C482.679 697.877 437.435 696.648 405.815 682.381C374.194 668.113 349.697 626.007 327.4 599.43C305.103 572.853 296.81 549.823 288.251 516.203C279.691 482.582 279.037 438.08 285.911 404.075C292.784 370.07 314.187 344.922 335.132 317.267C356.077 289.612 383.401 267.35 414.269 251.523C445.138 235.695 464.613 216.065 499.291 215.2C533.969 214.336 563.369 215.365 594.988 229.634C626.607 243.902 665.521 270.929 687.817 297.507C710.114 324.085 708.83 353.749 717.393 387.363C725.955 420.978 738.002 451.783 731.118 485.81C724.235 519.836 700.041 589.446 679.132 617.021C658.223 644.595 647.415 636.142 616.528 651.985Z" stroke="white" stroke-width="2"/>
<path fill-rule="evenodd" clip-rule="evenodd" d="M702.38 628.982C674.997 658.506 649.591 702.723 612.138 717.42C574.684 732.116 524.878 748.73 484.751 745.724C444.623 742.718 401.217 706.541 366.369 686.419C331.521 666.296 313.346 644.482 290.679 611.231C268.011 577.98 249.645 529.73 243.648 489.936C237.651 450.141 251.004 414.236 262.865 375.78C274.725 337.324 295.678 302.216 323.047 272.715C350.417 243.214 363.858 214.089 401.316 199.387C438.773 184.684 471.229 174.141 511.355 177.147C551.482 180.154 604.621 194.175 639.469 214.299C674.316 234.422 684.685 267.267 707.352 300.51C730.02 333.754 755.372 362.554 761.367 402.375C767.362 442.197 768.603 527.674 756.75 566.028C744.897 604.383 729.763 599.457 702.38 628.982H702.38Z" stroke="white" stroke-width="2"/>
<path fill-rule="evenodd" clip-rule="evenodd" d="M786.837 569.842C768.7 612.891 758.548 671.17 723.552 702.051C688.556 732.932 640.856 770.804 595.923 783.45C550.99 796.095 489.323 773.884 443.355 765.777C397.387 757.67 368.922 741.103 331.023 713.853C293.124 686.602 253.964 641.295 231.64 600.297C209.317 559.299 209.629 514.862 207.302 468.237C204.976 421.613 213.888 375.03 232.019 332.012C250.15 288.995 253.248 251.914 288.246 221.025C323.243 190.135 354.439 165.764 399.372 153.12C444.304 140.476 507.789 134.673 553.758 142.782C599.727 150.891 624.058 182.578 661.954 209.821C699.851 237.064 738.91 258.397 761.242 299.425C783.574 340.454 818.835 433.135 821.13 479.646C823.424 526.157 804.973 526.794 786.837 569.842Z" stroke="white" stroke-width="2"/>
<path fill-rule="evenodd" clip-rule="evenodd" d="M855.438 471.866C852.745 525.987 864.798 593.542 838.901 641.09C813.004 688.638 776.033 748.846 732.07 780.46C688.108 812.074 612.078 812.331 558.755 821.734C505.432 831.137 467.831 824.373 415.71 809.707C363.588 795.04 302.928 761.192 262.331 725.36C221.733 689.528 204.446 640.966 183.414 591.067C162.382 541.167 153.618 486.853 156.317 432.768C159.015 378.683 147.682 337.034 173.578 289.476C199.473 241.919 223.81 202.975 267.773 171.363C311.735 139.752 378.635 108.236 431.96 98.8352C485.284 89.4339 524.376 114.32 576.492 128.979C628.608 143.638 679.647 151.394 720.266 187.255C760.884 223.117 836.087 310.153 857.039 359.941C877.991 409.73 858.13 417.744 855.438 471.866Z" stroke="white" stroke-width="2"/>
<path fill-rule="evenodd" clip-rule="evenodd" d="M891.349 337.846C909.884 397.909 949.821 466.765 940.454 528.87C931.087 590.975 914.671 671.275 879.291 723.179C843.911 775.083 761.137 805.532 706.743 836.94C652.348 868.347 608.679 875.894 546.046 880.589C483.413 885.283 403.864 872.456 345.397 849.507C286.93 826.557 248.822 780.482 206.101 734.434C163.38 688.386 132.28 632.66 113.767 572.634C95.2536 512.608 66.378 471.706 75.7394 409.591C85.1008 347.476 96.1802 295.369 131.561 243.467C166.942 191.565 227.364 130.667 281.76 99.2599C336.157 67.8534 388.641 79.4694 451.265 74.7687C513.889 70.068 572.6 58.2707 631.102 81.2442C689.605 104.218 806.105 169.251 848.694 215.209C891.284 261.167 872.815 277.784 891.349 337.846V337.846Z" stroke="white" stroke-width="2"/>
<path fill-rule="evenodd" clip-rule="evenodd" d="M877.33 177.51C921.36 235.627 992.207 294.836 1006.63 366.25C1021.06 437.664 1035.02 531.708 1017.05 602.324C999.07 672.941 920.921 738.975 874.088 794.794C827.255 850.613 782.648 876.167 716.237 906.136C649.827 936.106 558.026 953.688 485.191 951.872C412.355 950.055 352.538 914.952 287.703 881.709C222.869 848.467 166.862 800.062 122.87 741.978C78.8778 683.893 31.1763 650.765 16.74 579.342C2.30366 507.92 -6.28994 446.725 11.6874 376.11C29.6649 305.496 71.3694 215.139 118.205 159.321C165.041 103.502 226.859 95.3387 293.257 65.3661C359.655 35.3935 418.973 -0.76217 491.856 1.06667C564.74 2.89551 717.529 27.5578 782.184 60.755C846.84 93.9522 833.299 119.394 877.33 177.51L877.33 177.51Z" stroke="white" stroke-width="2"/>
</g>
</svg>
